<svg xmlns="http://www.w3.org/2000/svg" width="492" height="354" fill="none"><g style="mix-blend-mode:screen"><path fill="#53240B" d="m466.414 30.117-.502-.242h-.65l-.26.112-.204.148h-.149l-.204.093c-.41.18-.763.469-1.021.836l-.093.297v.427l.093.297.353.464.26.186.408.111h.669l.594-.185a1.855 1.855 0 0 0 1.17-1.635v-.278l-.204-.334-.26-.297Z" style="mix-blend-mode:screen"/><path fill="#9F5504" d="m414.419 10.062-.148.241V11.435a1.355 1.355 0 0 0 1.225.762 1.49 1.49 0 0 0 1.3-.742 1.415 1.415 0 0 0 .093-1.3 1.206 1.206 0 0 0-.817-.743 1.338 1.338 0 0 0-1.653.65Z" style="mix-blend-mode:screen"/><path fill="#E3D1BD" d="M421.791 8.094V8.558a1.285 1.285 0 0 0 1.486.984h.167l.204-.111.13-.112.149-.111.186-.186v-.148l.148-.334V8a1.455 1.455 0 0 0-.668-.928 1.413 1.413 0 0 0-1.133-.093l-.316.13-.148.111-.186.204v.167l-.13.409.111.093Z" style="mix-blend-mode:screen"/><path fill="#D59C38" d="M465.838 23.209a1.58 1.58 0 0 0 1.04.724h.631l.353-.241.13-.13.167-.205v-.167c.053-.25.053-.51 0-.761v-.539l-.204-.445-.13-.186-.26-.204h-.204a1.487 1.487 0 0 0-1.857 1.077c-.017.387.101.767.334 1.077Z" style="mix-blend-mode:screen"/><path fill="#E7B851" d="m492.541 66.141-.205.093h-.148c-.295.279-.48.655-.52 1.058a1.428 1.428 0 0 0 1.188 1.486h.892a1.438 1.438 0 0 0 .482-1.003 1.536 1.536 0 0 0-.705-1.374h-.91l-.074-.26Z" style="mix-blend-mode:screen"/><path fill="#F9E59F" d="m489.978 15.02.112.241.111.149a1.54 1.54 0 0 0 1.17.483 1.483 1.483 0 0 0 1.058-.576l.093-.167v-1.04l-.13-.223-.111-.148-.297-.26H490.739l-.241.111-.149.13-.259.316-.093.148-.093.242v.613l.074-.019Z" style="mix-blend-mode:screen"/><path fill="#D6BDA1" d="m455.012 9.3.167-.13.186-.223.111-.185a1.261 1.261 0 0 0 .13-1.226l-.111-.186-.223-.204-.167-.093-.52-.185h-.093a1.47 1.47 0 0 0-.873.241l-.148.111-.112.168-.13.26V8.687l.112.186a1.338 1.338 0 0 0 1.671.427Z" style="mix-blend-mode:screen"/><path fill="#EADECF" d="M473.656 22.95v1.002c.059.222.182.422.352.575l.168.112.26.093h.854c.235-.064.447-.193.613-.372v-.167l.111-.26v-.984l.093-.167.167-.39v-.65a2.022 2.022 0 0 0-.817-.91l-.297-.167H474.603l-.372.093h-.148l-.204.13-.112.111a1.664 1.664 0 0 0-.371 1.356c.038.216.127.42.26.594Z" style="mix-blend-mode:screen"/><path fill="#F9E59F" d="M453.489 45.66V46.104a1.3 1.3 0 0 0 1.653.668l.148-.092.186-.149.111-.13.13-.13.149-.223v-1.04a1.38 1.38 0 0 0-1.426-.839 1.315 1.315 0 0 0-.542.19l-.297.185-.112.149-.13.222v.595l.13.148Z" style="mix-blend-mode:screen"/><path fill="#F9F6D2" d="m461.771 30.098-.427-.204h-.353v.093l-.148-.112c-.342-.02-.681.071-.966.26a1.318 1.318 0 0 0-.464 1.467v.167l.167.204.148.13.372.205H460.564a1.56 1.56 0 0 0 1.114-.26 1.34 1.34 0 0 0 .52-1.449l-.111-.185-.204-.242-.112-.074Z" style="mix-blend-mode:screen"/><path fill="#8C4703" d="M471.836 26.31h.446a1.375 1.375 0 0 0 1.188-.334l.242-.297v-.984a1.28 1.28 0 0 0-.929-.836 1.67 1.67 0 0 0-1.467.39 1.31 1.31 0 0 0-.445 1.133v.371l.185.279.186.148.594.13Z" style="mix-blend-mode:screen"/><path fill="#EADECF" d="m439.952 4.788-.315-.148H439.08l-.539.167-.223.167-.241.297-.112.241v.093a1.461 1.461 0 0 0 .155 1.18 1.475 1.475 0 0 0 .978.677h.594l.335-.186.148-.11.167-.187v-.167a1.653 1.653 0 0 0-.39-2.024Z" style="mix-blend-mode:screen"/><path fill="#DFCBB3" d="M479.338 50.45h.817a1.319 1.319 0 0 0 1.077-.631V49.132l-.186-.52v-.167a1.555 1.555 0 0 0-.724-.557H479.468l-.353.241-.13.111-.148.205v.204a1.316 1.316 0 0 0 .501 1.801Z" style="mix-blend-mode:screen"/><path fill="#EEE3D8" d="M468.4 16.208v.836l.223.483.167.185.26.186V18.362l.112.205.297.352h.093c.193.218.455.362.742.409a1.246 1.246 0 0 0 1.393-.836v-.575l-.13-.39v-.13l-.111-.13.26-.205a1.864 1.864 0 0 0 .65-1.393v-.26l-.205-.315-.204-.186-.483-.241h-.65l-.241.093a2.76 2.76 0 0 1-.52.241 3.028 3.028 0 0 0-1.653 1.207Z" style="mix-blend-mode:screen"/><path fill="#D59C38" d="m478.985 29.541-.26.13-.148.111c-.189.18-.329.403-.409.65a1.245 1.245 0 0 0 .186 1.616c.282.263.654.409 1.04.408a1.22 1.22 0 0 0 .891-.37l.149-.335V30.544a1.483 1.483 0 0 0-.205-.65l-.185-.167-.316-.167H479.189l-.204-.019Z" style="mix-blend-mode:screen"/><path fill="#F9D46B" d="m484.203 127.104-.297.483v.909l.112.223v.353c.144.431.4.815.742 1.114l.279.112h.743l.501-.297.186-.242.167-.408v-.669a3.702 3.702 0 0 0-.149-.613 1.85 1.85 0 0 0-1.504-1.318h-.278l-.353.167-.149.186Z" style="mix-blend-mode:screen"/><path fill="#E7D8C6" d="m450.221 14.091-.112.205v.167c-.056.397.036.8.26 1.133a1.431 1.431 0 0 0 1.857.427l.112-.112.297-.39v-.26a1.469 1.469 0 0 0-.86-1.588 1.502 1.502 0 0 0-.793-.12h-.167l-.037.111-.13.093-.279.242-.148.092Z" style="mix-blend-mode:screen"/><path fill="#9F5504" d="m491.724 77.468.167.372.111.148.186.186.148.093.39.167h.613a1.485 1.485 0 0 0 .891-2.061v-.112l-.13-.148-.204-.167-.167-.093-.39-.13h-.613l-.371.167-.149.111-.185.205-.112.148-.278.446v.464l.093.204Z" style="mix-blend-mode:screen"/><path fill="#793903" d="M488.678 132.285v-.52a1.46 1.46 0 0 0-.575-1.114 1.543 1.543 0 0 0-2.489 1.485v.205l.112.185v.093l.427.334.167.093h1.077l.223-.13.148-.13.335-.427.575-.074Z" style="mix-blend-mode:screen"/><path fill="#F9E59F" d="m481.678 111.023.092-.111V109.798a2.082 2.082 0 0 0-2.339-1.022l-.279.168-.297.352-.111.316v.613l.111.297.26.353.204.148.167.093c1.003.483 1.69.464 2.192-.093Z" style="mix-blend-mode:screen"/><path fill="#F9F6D2" d="M492.987 41.927v-.242h-.093.111a1.71 1.71 0 0 0 0-.817l-.13-.297-.111-.13-.167-.148h-.13l-.353-.149-.632.26-.278.668.186.428v.111l.13.687.594.39.687-.149.223-.334-.037-.278Z" style="mix-blend-mode:screen"/><path fill="#3B1703" d="m492.336 107.996-.482.297-.186.205-.167.334v.891c-.071.445-.02.901.148 1.318l.205.242.352.223H493.098l.297-.112.315-.278.149-.279v-.353c.061-.2.105-.405.13-.612a1.855 1.855 0 0 0-.743-1.857h-.65l-.26-.019Z" style="mix-blend-mode:screen"/><path fill="url(#a)" d="m296.289-480.509-32.826 32.826L937.06 225.91l32.827-32.826-673.598-673.593Z"/><path fill="url(#b)" d="m269.368-453.582-5.909 5.909 673.597 673.592 5.909-5.908-673.597-673.593Z"/><path fill="url(#c)" d="m112.653-364.592-2.049 2.048 715.957 715.952 2.048-2.048-715.956-715.952Z"/><path fill="url(#d)" d="m209.224-464.854-2.048 2.049 715.957 715.951 2.048-2.048-715.957-715.952Z"/><path fill="url(#e)" d="m325.288-528-2.048 2.048L1039.2 190l2.04-2.048L325.288-528Z"/><path fill="url(#f)" d="m76.457-365.846-2.049 2.049 715.957 715.951 2.048-2.048L76.457-365.846Z"/><path fill="url(#g)" d="M2.048-364.169 0-362.12l715.957 715.951 2.048-2.048L2.048-364.169Z"/><path fill="url(#h)" d="m251.43-512.663-2.048 2.048 715.956 715.952 2.049-2.048L251.43-512.663Z"/><path fill="url(#i)" d="M574.395-54.726c87.016 87.015 151.675 163.409 144.433 170.688-7.242 7.28-83.674-57.397-170.69-144.413-87.017-87.015-151.694-163.409-144.433-170.689 7.26-7.279 83.673 57.398 170.69 144.414Z" style="mix-blend-mode:screen"/><path fill="url(#j)" d="M568.638-48.97c48.93 48.912 85.289 91.881 81.204 96.06-4.085 4.177-47.036-32.274-95.967-81.204-48.93-48.93-85.27-91.974-81.185-96.059 4.085-4.085 47.036 32.273 95.948 81.203Z" style="mix-blend-mode:screen"/></g><defs><linearGradient id="a" x1="218.32" x2="1027.16" y1="-523.026" y2="280.564" gradientUnits="userSpaceOnUse"><stop stop-color="#F4EFEA"/><stop offset=".06" stop-color="#F3EDE8"/><stop offset=".53" stop-color="#EEE3D8"/><stop offset=".99" stop-color="#E3D1BD"/></linearGradient><linearGradient id="b" x1="859.927" x2="451.911" y1="142.882" y2="-265.136" gradientUnits="userSpaceOnUse"><stop stop-color="#F4E0AE"/><stop offset=".2" stop-color="#EACD8C"/><stop offset=".32" stop-color="#E5C47C"/><stop offset=".36" stop-color="#E0BE77"/><stop offset=".42" stop-color="#D2AD69"/><stop offset=".5" stop-color="#BC9152"/><stop offset=".54" stop-color="#AA7A40"/><stop offset=".62" stop-color="#C09657"/><stop offset=".72" stop-color="#D4AF6B"/><stop offset=".8" stop-color="#E1BF78"/><stop offset=".87" stop-color="#E5C47C"/></linearGradient><linearGradient id="c" x1="742.578" x2="308.905" y1="267.22" y2="-166.456" gradientUnits="userSpaceOnUse"><stop stop-color="#F4E0AE"/><stop offset=".2" stop-color="#EACD8C"/><stop offset=".32" stop-color="#E5C47C"/><stop offset=".36" stop-color="#E0BE77"/><stop offset=".42" stop-color="#D2AD69"/><stop offset=".5" stop-color="#BC9152"/><stop offset=".54" stop-color="#AA7A40"/><stop offset=".62" stop-color="#C09657"/><stop offset=".72" stop-color="#D4AF6B"/><stop offset=".8" stop-color="#E1BF78"/><stop offset=".87" stop-color="#E5C47C"/></linearGradient><linearGradient id="d" x1="839.15" x2="405.477" y1="166.958" y2="-266.718" gradientUnits="userSpaceOnUse"><stop stop-color="#F4E0AE"/><stop offset=".2" stop-color="#EACD8C"/><stop offset=".32" stop-color="#E5C47C"/><stop offset=".36" stop-color="#E0BE77"/><stop offset=".42" stop-color="#D2AD69"/><stop offset=".5" stop-color="#BC9152"/><stop offset=".54" stop-color="#AA7A40"/><stop offset=".62" stop-color="#C09657"/><stop offset=".72" stop-color="#D4AF6B"/><stop offset=".8" stop-color="#E1BF78"/><stop offset=".87" stop-color="#E5C47C"/></linearGradient><linearGradient id="e" x1="955.2" x2="521.527" y1="103.799" y2="-329.877" gradientUnits="userSpaceOnUse"><stop stop-color="#F4E0AE"/><stop offset=".2" stop-color="#EACD8C"/><stop offset=".32" stop-color="#E5C47C"/><stop offset=".36" stop-color="#E0BE77"/><stop offset=".42" stop-color="#D2AD69"/><stop offset=".5" stop-color="#BC9152"/><stop offset=".54" stop-color="#AA7A40"/><stop offset=".62" stop-color="#C09657"/><stop offset=".72" stop-color="#D4AF6B"/><stop offset=".8" stop-color="#E1BF78"/><stop offset=".87" stop-color="#E5C47C"/></linearGradient><linearGradient id="f" x1="706.277" x2="272.604" y1="266.018" y2="-167.657" gradientUnits="userSpaceOnUse"><stop stop-color="#F4E0AE"/><stop offset=".2" stop-color="#EACD8C"/><stop offset=".32" stop-color="#E5C47C"/><stop offset=".36" stop-color="#E0BE77"/><stop offset=".42" stop-color="#D2AD69"/><stop offset=".5" stop-color="#BC9152"/><stop offset=".54" stop-color="#AA7A40"/><stop offset=".62" stop-color="#C09657"/><stop offset=".72" stop-color="#D4AF6B"/><stop offset=".8" stop-color="#E1BF78"/><stop offset=".87" stop-color="#E5C47C"/></linearGradient><linearGradient id="g" x1="631.96" x2="198.288" y1="267.656" y2="-166.02" gradientUnits="userSpaceOnUse"><stop stop-color="#F4E0AE"/><stop offset=".2" stop-color="#EACD8C"/><stop offset=".32" stop-color="#E5C47C"/><stop offset=".36" stop-color="#E0BE77"/><stop offset=".42" stop-color="#D2AD69"/><stop offset=".5" stop-color="#BC9152"/><stop offset=".54" stop-color="#AA7A40"/><stop offset=".62" stop-color="#C09657"/><stop offset=".72" stop-color="#D4AF6B"/><stop offset=".8" stop-color="#E1BF78"/><stop offset=".87" stop-color="#E5C47C"/></linearGradient><linearGradient id="h" x1="881.237" x2="447.564" y1="119.214" y2="-314.461" gradientUnits="userSpaceOnUse"><stop stop-color="#F4E0AE"/><stop offset=".2" stop-color="#EACD8C"/><stop offset=".32" stop-color="#E5C47C"/><stop offset=".36" stop-color="#E0BE77"/><stop offset=".42" stop-color="#D2AD69"/><stop offset=".5" stop-color="#BC9152"/><stop offset=".54" stop-color="#AA7A40"/><stop offset=".62" stop-color="#C09657"/><stop offset=".72" stop-color="#D4AF6B"/><stop offset=".8" stop-color="#E1BF78"/><stop offset=".87" stop-color="#E5C47C"/></linearGradient><radialGradient id="i" cx="0" cy="0" r="1" gradientTransform="matrix(12.60847 -12.60838 157.60507 157.60617 503.937 15.768)" gradientUnits="userSpaceOnUse"><stop stop-color="#8C4703"/><stop offset=".09" stop-color="#7B3F03"/><stop offset=".49" stop-color="#391D01"/><stop offset=".78" stop-color="#100800"/><stop offset=".93"/></radialGradient><radialGradient id="j" cx="0" cy="0" r="1" gradientTransform="rotate(-45 146.442 -869.073) scale(11.1472 124.848)" gradientUnits="userSpaceOnUse"><stop stop-color="#F9EEB8"/><stop offset=".04" stop-color="#EBE1AE"/><stop offset=".23" stop-color="#A59D7A"/><stop offset=".41" stop-color="#6A654E"/><stop offset=".58" stop-color="#3C3A2D"/><stop offset=".72" stop-color="#1B1A14"/><stop offset=".85" stop-color="#070705"/><stop offset=".93"/></radialGradient></defs></svg>